<svg width="19" height="19" fill="none" xmlns="http://www.w3.org/2000/svg"><path d="M16.217 2.783c-3.71-3.71-9.725-3.71-13.434 0-3.71 3.71-3.71 9.725 0 13.434 3.709 3.71 9.724 3.71 13.434 0 3.71-3.709 3.71-9.724 0-13.434zm-1.12 12.315a7.916 7.916 0 01-11.195 0 7.916 7.916 0 010-11.196 7.916 7.916 0 0111.196 0 7.916 7.916 0 010 11.196z" fill="#EB5757"/><path d="M9.5 3.167a.792.792 0 00-.792.792v7.916a.792.792 0 001.583 0V3.96a.792.792 0 00-.791-.792zm0 11.083a.792.792 0 100 1.584.792.792 0 000-1.584z" fill="#EB5757"/></svg>