<svg width="11" height="15" fill="none" xmlns="http://www.w3.org/2000/svg"><g clip-path="url(#clip0)" fill="#8F9FB0"><path d="M1.667 3.333a1.667 1.667 0 100-3.333 1.667 1.667 0 000 3.333zm0 5.834a1.667 1.667 0 100-3.334 1.667 1.667 0 000 3.334zm0 5.833a1.667 1.667 0 100-3.333 1.667 1.667 0 000 3.333zm7.5-11.667a1.667 1.667 0 100-3.333 1.667 1.667 0 000 3.333zm0 5.834a1.667 1.667 0 100-3.334 1.667 1.667 0 000 3.334zm0 5.833a1.667 1.667 0 100-3.333 1.667 1.667 0 000 3.333z"/></g><defs><clipPath id="clip0"><path fill="#fff" d="M0 0h10.833v15H0z"/></clipPath></defs></svg>