<svg width="24" height="24" fill="none" xmlns="http://www.w3.org/2000/svg"><path d="M8.639 1.772a.573.573 0 01-.573.573H2.98a1.72 1.72 0 00-1.718 1.718v16.073c0 .949.77 1.717 1.718 1.718h14.927a1.72 1.72 0 001.718-1.718V15.05a.573.573 0 111.146 0v5.086A2.867 2.867 0 0117.907 23H2.98a2.867 2.867 0 01-2.864-2.864V4.063A2.867 2.867 0 012.98 1.2h5.086c.316 0 .573.257.573.573z" fill="#8392A5"/><path d="M22.245 1.426a2.578 2.578 0 010 3.646L12.025 15.29a.573.573 0 01-.252.147l-4.851 1.344a.573.573 0 01-.705-.705l1.344-4.852a.573.573 0 01.147-.252L17.928.753a2.58 2.58 0 013.645 0l.672.673zM11.653 14.043l8.364-8.364-2.697-2.697-8.364 8.364 2.697 2.697zm-1.081.539l-2.155-2.155-.826 2.98 2.981-.825zm8.165-13.018l-.607.607 2.698 2.698.607-.608a1.43 1.43 0 000-2.025l-.672-.672a1.434 1.434 0 00-2.026 0z" fill="#8392A5"/></svg>