<svg width="20" height="20" fill="none" xmlns="http://www.w3.org/2000/svg"><path d="M13.478 7.826c.24 0 .435-.195.435-.435V2.174A2.176 2.176 0 0011.74 0H2.174C.974 0 0 .976 0 2.174v15.652C0 19.024.975 20 2.174 20h9.565c1.2 0 2.174-.976 2.174-2.174V12.61a.435.435 0 00-.87 0v5.217c0 .72-.585 1.304-1.304 1.304H2.174c-.72 0-1.304-.585-1.304-1.304V2.174c0-.72.585-1.304 1.304-1.304h9.565c.72 0 1.304.585 1.304 1.304V7.39c0 .24.195.435.435.435z" fill="#8392A5"/><path d="M19.565 9.565H5.652a.435.435 0 000 .87h13.913a.435.435 0 000-.87z" fill="#8392A5"/><path d="M19.872 9.694l-2.609-2.609a.435.435 0 00-.615.615L18.95 10l-2.3 2.302a.435.435 0 00.614.615l2.609-2.608a.435.435 0 000-.615z" fill="#8392A5"/></svg>