<svg width="24" height="24" fill="none" xmlns="http://www.w3.org/2000/svg"><path fill-rule="evenodd" clip-rule="evenodd" d="M6.5 1h-2c-.713 0-1.197 0-1.573.026-.368.025-.559.07-.692.126a2 2 0 00-1.083 1.083c-.055.133-.1.324-.126.692C1.001 3.303 1 3.787 1 4.5s0 1.197.026 1.573c.025.368.07.559.126.692a2 2 0 001.083 1.083c.133.055.324.1.692.126.376.025.86.026 1.573.026h2c.713 0 1.197 0 1.573-.026.368-.025.559-.07.692-.126a2 2 0 001.083-1.083c.055-.133.1-.324.126-.692.025-.376.026-.86.026-1.573s0-1.197-.026-1.573c-.025-.368-.07-.559-.126-.692a2 2 0 00-1.083-1.083c-.133-.055-.324-.1-.692-.126C7.697 1.001 7.213 1 6.5 1zM10 18.5v-2c0-1.196-.001-2.01-.071-2.628-.068-.598-.188-.889-.342-1.09a1.999 1.999 0 00-.37-.369c-.2-.154-.491-.274-1.09-.342C7.51 12.001 6.697 12 5.5 12c-1.196 0-2.01.002-2.628.071-.598.068-.889.188-1.09.342a2.02 2.02 0 00-.369.37c-.154.2-.274.491-.342 1.09C1.001 14.49 1 15.303 1 16.5v2c0 1.196.001 2.01.071 2.628.068.598.188.889.342 1.09.107.138.23.262.37.369.2.154.491.274 1.09.342.618.07 1.431.071 2.627.071 1.196 0 2.01-.002 2.628-.071.598-.068.889-.188 1.09-.342a2.02 2.02 0 00.369-.37c.154-.2.274-.491.342-1.09.07-.618.071-1.431.071-2.627zm5.927-2.474c-.368.025-.559.07-.692.126a2 2 0 00-1.083 1.083c-.055.133-.1.324-.126.692-.025.376-.026.86-.026 1.573s0 1.197.026 1.573c.025.368.07.559.126.692a2 2 0 001.083 1.083c.133.055.324.1.692.126.376.026.86.026 1.573.026h2c.713 0 1.197 0 1.573-.026.368-.025.559-.07.692-.126a2 2 0 001.083-1.083c.055-.133.1-.324.126-.692.026-.376.026-.86.026-1.573s0-1.197-.026-1.573c-.025-.368-.07-.559-.126-.692a2 2 0 00-1.083-1.083c-.133-.055-.324-.1-.692-.126C20.697 16 20.213 16 19.5 16h-2c-.713 0-1.197 0-1.573.026zM23 7.5v-2c0-1.196-.002-2.01-.071-2.628-.068-.598-.188-.889-.342-1.09a1.999 1.999 0 00-.37-.369c-.2-.154-.491-.274-1.09-.342C20.51 1.001 19.697 1 18.5 1c-1.196 0-2.01.001-2.628.071-.598.068-.889.188-1.09.342a2.02 2.02 0 00-.369.37c-.154.2-.274.491-.342 1.09C14.001 3.49 14 4.303 14 5.5v2c0 1.196.002 2.01.071 2.628.068.598.188.889.342 1.09.107.138.23.262.37.369.2.154.491.274 1.09.342.618.07 1.431.071 2.627.071 1.196 0 2.01-.002 2.628-.071.598-.068.889-.188 1.09-.342a2.02 2.02 0 00.369-.37c.154-.2.274-.491.342-1.09.07-.618.071-1.431.071-2.627zM.228 1.852C0 2.403 0 3.102 0 4.5c0 1.398 0 2.097.228 2.648a3 3 0 001.624 1.624C2.403 9 3.102 9 4.5 9h2c1.398 0 2.097 0 2.648-.228a3 3 0 001.624-1.624C11 6.597 11 5.898 11 4.5c0-1.398 0-2.097-.228-2.648A3 3 0 009.148.228C8.597 0 7.898 0 6.5 0h-2C3.102 0 2.403 0 1.852.228A3 3 0 00.228 1.852zM.62 12.174C0 12.982 0 14.154 0 16.5v2c0 2.346 0 3.518.62 4.326a3 3 0 00.554.554c.808.62 1.98.62 4.326.62 2.346 0 3.518 0 4.326-.62a3 3 0 00.554-.554c.62-.808.62-1.98.62-4.326v-2c0-2.346 0-3.518-.62-4.326a3 3 0 00-.554-.554C9.018 11 7.846 11 5.5 11c-2.346 0-3.518 0-4.326.62a3 3 0 00-.554.554zM13 19.5c0 1.398 0 2.097.228 2.648a3 3 0 001.624 1.624c.551.228 1.25.228 2.648.228h2c1.398 0 2.097 0 2.648-.228a3 3 0 001.624-1.624C24 21.597 24 20.898 24 19.5c0-1.398 0-2.097-.228-2.648a3 3 0 00-1.624-1.624C21.597 15 20.898 15 19.5 15h-2c-1.398 0-2.097 0-2.648.228a3 3 0 00-1.624 1.624C13 17.403 13 18.102 13 19.5zm.62-7.674C13 11.018 13 9.846 13 7.5v-2c0-2.346 0-3.518.62-4.326a3 3 0 01.554-.554C14.982 0 16.154 0 18.5 0c2.346 0 3.518 0 4.326.62a3 3 0 01.554.554c.62.808.62 1.98.62 4.326v2c0 2.346 0 3.518-.62 4.326a3 3 0 01-.554.554c-.808.62-1.98.62-4.326.62-2.346 0-3.518 0-4.326-.62a3 3 0 01-.554-.554z" fill="#646D7C"/></svg>