<svg width="24" height="18" fill="none" xmlns="http://www.w3.org/2000/svg"><path d="M22 .6H2a2.002 2.002 0 00-2 2v12.8a2.002 2.002 0 002 2h20c.112 0 .224-.01.335-.03A1.994 1.994 0 0024 15.4V2.6a2.002 2.002 0 00-2-2zm-20 16a1.2 1.2 0 01-1.195-1.094L8.78 10.29l8.11 6.309H2zm21.2-1.2a1.197 1.197 0 01-1.2 1.2h-3.807l-5.3-4.124 4.74-3.79 5.567 3.34V15.4zm0-4.306l-5.394-3.237a.4.4 0 00-.456.03l-5.107 4.085-3.198-2.488a.4.4 0 00-.464-.019L.8 14.553V2.6A1.2 1.2 0 012 1.4h20a1.2 1.2 0 011.2 1.2v8.494z" fill="#646D7C"/><path d="M12 3a2.4 2.4 0 100 4.8A2.4 2.4 0 0012 3zm0 4a1.6 1.6 0 110-3.2A1.6 1.6 0 0112 7z" fill="#646D7C"/></svg>