<svg width="20" height="20" fill="none" xmlns="http://www.w3.org/2000/svg"><path fill-rule="evenodd" clip-rule="evenodd" d="M17.952 8.212a.833.833 0 01-.633-.564 7.666 7.666 0 00-.475-1.152.833.833 0 01.05-.845l.691-1.025-2.217-2.221-1.03.696a.833.833 0 01-.844.052 7.658 7.658 0 00-1.11-.459.833.833 0 01-.561-.635L11.587.836 10 .833H8.432l-.239 1.223a.833.833 0 01-.562.634c-.387.124-.763.28-1.125.463a.833.833 0 01-.845-.052l-1.03-.696-2.216 2.22.69 1.026c.17.252.19.575.052.845a7.648 7.648 0 00-.47 1.137.833.833 0 01-.635.563L.837 8.43l-.003 3.12 1.214.237a.833.833 0 01.634.564c.126.396.285.782.474 1.152a.833.833 0 01-.05.845l-.69 1.025 2.216 2.221 1.03-.696a.834.834 0 01.844-.053c.357.182.729.336 1.11.46a.833.833 0 01.561.635l.236 1.222 3.155.003.239-1.222a.834.834 0 01.562-.634 7.64 7.64 0 001.125-.463.833.833 0 01.845.052l1.03.696 2.216-2.22-.69-1.026a.833.833 0 01-.051-.846c.186-.364.344-.745.47-1.136a.833.833 0 01.634-.563l1.215-.235.003-3.12-1.214-.237zM15.05 18.385l-1.177-.796a8.476 8.476 0 01-1.248.515l-.276 1.419a.6.6 0 01-.595.477l-3.527-.003a.6.6 0 01-.593-.479l-.274-1.42a8.484 8.484 0 01-1.23-.509l-1.178.796a.619.619 0 01-.781-.073l-2.494-2.499a.572.572 0 01-.071-.727l.81-1.203a8.477 8.477 0 01-.527-1.277l-1.403-.274A.59.59 0 010 11.757l.004-3.534c0-.28.203-.52.486-.574l1.403-.272c.14-.433.315-.855.522-1.26l-.81-1.203a.572.572 0 01.071-.727l2.494-2.5a.619.619 0 01.78-.072l1.178.796a8.492 8.492 0 011.248-.515L7.652.477A.6.6 0 018.246 0H10l1.774.004a.6.6 0 01.593.478l.274 1.42a8.36 8.36 0 011.23.509l1.178-.796a.62.62 0 01.781.073l2.494 2.499a.572.572 0 01.072.727l-.81 1.203c.21.41.386.838.526 1.277l1.403.274a.59.59 0 01.485.575l-.003 3.534a.59.59 0 01-.487.574l-1.403.271a8.45 8.45 0 01-.522 1.261l.81 1.203a.572.572 0 01-.071.727l-2.494 2.5a.62.62 0 01-.78.072z" fill="#8392A5"/><path fill-rule="evenodd" clip-rule="evenodd" d="M10 6.667A3.338 3.338 0 006.667 10 3.338 3.338 0 0010 13.334 3.338 3.338 0 0013.333 10 3.338 3.338 0 0010 6.667zM5.833 10A4.171 4.171 0 0110 5.833 4.171 4.171 0 0114.167 10 4.171 4.171 0 0110 14.167 4.171 4.171 0 015.833 10z" fill="#8392A5"/></svg>