<svg width="24" height="23" fill="none" xmlns="http://www.w3.org/2000/svg"><path fill-rule="evenodd" clip-rule="evenodd" d="M15.096 13.565c-.463 0-.861 0-1.18.043-.342.046-.67.15-.936.416s-.37.593-.415.935c-.043.32-.043.718-.043 1.18v.07c0 .462 0 .86.043 1.18.046.341.15.67.415.935.266.266.594.37.936.416.319.043.717.043 1.18.043h1.112c.463 0 .861 0 1.18-.043.342-.046.67-.15.936-.416s.37-.594.416-.936c.043-.319.043-.717.043-1.18v-.068c0-.463 0-.862-.043-1.18-.046-.343-.15-.67-.416-.936s-.594-.37-.936-.416c-.319-.043-.717-.043-1.18-.043h-1.112zm-1.378 1.197c.04-.04.11-.09.337-.12.241-.032.569-.033 1.075-.033h1.044c.506 0 .834 0 1.075.033.227.03.298.08.337.12.04.04.09.11.12.336.032.242.033.57.033 1.076 0 .506-.001.834-.034 1.075-.03.227-.079.298-.119.337-.04.04-.11.09-.337.12-.241.032-.569.033-1.075.033H15.13c-.506 0-.834-.001-1.075-.034-.226-.03-.297-.079-.337-.119-.04-.04-.089-.11-.12-.337-.032-.24-.033-.569-.033-1.075 0-.507.001-.834.034-1.075.03-.227.08-.298.119-.338z" fill="#646D7C"/><path fill-rule="evenodd" clip-rule="evenodd" d="M18.169 0H5.831c-.584 0-1.064 0-1.46.044-.418.045-.782.142-1.126.36-.64.405-.948 1.056-1.386 1.98l-.054.114a32.204 32.204 0 00-1.2 2.834C.266 6.282 0 7.247 0 7.991c0 .78.122 1.66.643 2.353.34.45.815.78 1.444.965v9.073c0 .463 0 .861.043 1.18.046.342.15.67.415.936.266.266.594.37.936.416.32.042.718.042 1.18.042H19.34c.462 0 .86 0 1.18-.042.342-.046.67-.15.936-.416s.37-.594.415-.936c.043-.319.043-.717.043-1.18V11.31c.628-.185 1.105-.515 1.444-.965.52-.695.642-1.575.642-2.355 0-.744-.265-1.71-.605-2.659a32.229 32.229 0 00-1.2-2.834l-.055-.115C21.703 1.46 21.395.81 20.755.404c-.344-.218-.708-.315-1.125-.36C19.233 0 18.753 0 18.169 0zm2.7 11.473a5.848 5.848 0 01-.26.005c-1.27 0-2.157-.416-2.709-1.129a2.792 2.792 0 01-.145-.207 2.664 2.664 0 01-.137.202c-.544.722-1.439 1.134-2.748 1.134-1.31 0-2.205-.412-2.749-1.134a2.664 2.664 0 01-.137-.202 2.79 2.79 0 01-.145.207c-.552.713-1.44 1.13-2.709 1.13-1.31 0-2.204-.413-2.748-1.135a2.621 2.621 0 01-.121-.176c-.038.06-.078.118-.121.176-.544.722-1.439 1.134-2.749 1.134-.089 0-.175-.002-.26-.005v8.875c0 .506 0 .834.033 1.075.03.227.08.298.12.337.039.04.11.09.336.12.242.032.569.033 1.076.033h.521V16.14c0-.463 0-.862.043-1.18.046-.343.15-.67.416-.936s.594-.37.936-.416c.319-.043.717-.043 1.18-.043h.068c.463 0 .861 0 1.18.043.343.046.67.15.936.416s.37.593.416.935c.043.32.043.718.043 1.18v5.774h8.87c.506 0 .834-.001 1.075-.034.226-.03.297-.08.337-.119.04-.04.089-.11.119-.337.032-.241.034-.569.034-1.075v-8.875zM7.217 9.716c-.316-.42-.433-1.022-.433-1.725a.522.522 0 10-1.044 0c0 .703-.117 1.305-.433 1.725-.293.39-.833.719-1.915.719-1.081 0-1.621-.33-1.914-.719-.316-.42-.434-1.022-.434-1.725 0-.55.21-1.37.545-2.307.33-.92.76-1.896 1.16-2.739.515-1.087.7-1.435 1.055-1.66.167-.105.363-.17.681-.204.333-.037.756-.038 1.375-.038h12.282c.619 0 1.042.001 1.375.038.318.035.514.1.68.205.356.224.54.572 1.056 1.66.4.842.83 1.818 1.16 2.738.336.937.544 1.756.544 2.307 0 .703-.117 1.305-.433 1.725-.293.39-.833.719-1.914.719-1.027 0-1.574-.325-1.883-.725-.33-.425-.465-1.03-.465-1.72a.522.522 0 00-1.044 0c0 .704-.117 1.306-.433 1.726-.293.39-.833.719-1.914.719-1.082 0-1.622-.33-1.915-.719-.316-.42-.433-1.022-.433-1.725a.522.522 0 10-1.044 0c0 .688-.136 1.294-.464 1.72-.31.4-.857.724-1.884.724-1.081 0-1.62-.33-1.914-.719zM9.39 21.913H6.26v-5.74c0-.506.001-.833.033-1.074.03-.227.08-.298.12-.338.04-.04.11-.088.337-.119.24-.032.568-.033 1.075-.033s.834 0 1.076.033c.226.03.297.08.337.12.04.04.088.11.119.336.032.242.033.57.033 1.076v5.739z" fill="#646D7C"/></svg>