<svg width="24" height="24" fill="none" xmlns="http://www.w3.org/2000/svg"><path d="M18.51 2.381h-4.143a1.383 1.383 0 00-1.395-1.38h-2.735a1.381 1.381 0 00-1.395 1.38H4.698a.69.69 0 100 1.382H18.51a.69.69 0 000-1.382zM8.843 9.98c0-.387.317-.691.69-.691.387 0 .69.318.69.69v8.289a.69.69 0 11-1.38 0V9.979zm4.144 0c0-.373.317-.691.69-.691.387 0 .69.318.69.69v8.289a.69.69 0 01-1.38 0V9.979z" fill="#8392A5"/><path d="M17.821 6.525l-1.395 15.07c0 .056-.083.125-.138.125H6.923c-.07 0-.138-.083-.138-.124L5.389 6.526h12.432zm.11-1.38H5.252a1.243 1.243 0 00-1.243 1.38L5.417 21.72c.07.76.746 1.381 1.52 1.381h9.337a1.547 1.547 0 001.52-1.381l1.409-15.195a1.243 1.243 0 00-1.244-1.38h-.027z" fill="#8392A5"/></svg>