<svg width="20" height="20" fill="none" xmlns="http://www.w3.org/2000/svg"><path d="M10 0a5.28 5.28 0 00-5.273 5.273A5.28 5.28 0 0010 10.547a5.28 5.28 0 005.273-5.274A5.28 5.28 0 0010 0zm0 9.375a4.106 4.106 0 01-4.102-4.102A4.106 4.106 0 0110 1.172a4.106 4.106 0 014.102 4.101A4.106 4.106 0 0110 9.375zm1.634 2.383H8.366c-2.703 0-5.371 1.248-7.155 3.924V20h17.578v-4.318c-1.781-2.672-4.448-3.924-7.155-3.924zm5.983 7.07H2.383v-2.787a7.293 7.293 0 015.983-3.111h3.268a7.293 7.293 0 015.983 3.11v2.788z" fill="#646D7C"/></svg>