<svg width="162" height="120" fill="none" xmlns="http://www.w3.org/2000/svg"><path fill="#fff" d="M0 0h162v120H0z"/><mask id="a" maskUnits="userSpaceOnUse" x="0" y="0" width="162" height="120"><path d="M160 0H2C.895 0 0 2.686 0 6v108c0 3.314.895 6 2 6h158c1.105 0 2-2.686 2-6V6c0-3.314-.895-6-2-6z" fill="#fff"/></mask><g mask="url(#a)"><path fill-rule="evenodd" clip-rule="evenodd" d="M69 98H8v4h61v-4zm44 8H8v4h105v-4zm41-8h-27v4h27v-4z" fill="#EBEBEB"/><rect x="7" y="9" width="148" height="81" rx="2" fill="#FFF8C7"/></g></svg>