<svg width="162" height="120" fill="none" xmlns="http://www.w3.org/2000/svg"><path fill="#fff" d="M0 0h162v120H0z"/><mask id="a" maskUnits="userSpaceOnUse" x="6" y="9" width="68" height="66"><path d="M73.16 9H6.84C6.376 9 6 10.477 6 12.3v59.4c0 1.822.376 3.3.84 3.3h66.32c.464 0 .84-1.478.84-3.3V12.3c0-1.823-.376-3.3-.84-3.3z" fill="#fff"/></mask><g mask="url(#a)"><path fill-rule="evenodd" clip-rule="evenodd" d="M42 57H7v4h35v-4zm32 7H7v4h67v-4zm-45 7H7v4h22v-4z" fill="#EBEBEB"/><rect x="7" y="9" width="67" height="42" rx="2" fill="#FFF8C7"/></g><mask id="b" maskUnits="userSpaceOnUse" x="80" y="9" width="68" height="66"><path d="M147.16 9H80.84c-.464 0-.84 1.477-.84 3.3v59.4c0 1.822.376 3.3.84 3.3h66.32c.464 0 .84-1.478.84-3.3V12.3c0-1.823-.376-3.3-.84-3.3z" fill="#fff"/></mask><g mask="url(#b)"><path fill-rule="evenodd" clip-rule="evenodd" d="M116 57H81v4h35v-4zm32 7H81v4h67v-4zm-45 7H81v4h22v-4z" fill="#EBEBEB"/><rect x="81" y="9" width="67" height="42" rx="2" fill="#FECDD2"/></g><mask id="c" maskUnits="userSpaceOnUse" x="6" y="83" width="69" height="37"><path d="M74.148 83H6.852c-.47 0-.852.828-.852 1.85v33.3c0 1.022.381 1.85.852 1.85h67.296c.47 0 .852-.828.852-1.85v-33.3c0-1.022-.381-1.85-.852-1.85z" fill="#fff"/></mask><g mask="url(#c)"><rect x="7" y="83" width="67" height="42" rx="2" fill="#B4EBF1"/></g><mask id="d" maskUnits="userSpaceOnUse" x="80" y="83" width="69" height="37"><path d="M148.148 83H80.852c-.47 0-.852.828-.852 1.85v33.3c0 1.022.381 1.85.852 1.85h67.296c.471 0 .852-.828.852-1.85v-33.3c0-1.022-.381-1.85-.852-1.85z" fill="#fff"/></mask><g mask="url(#d)"><rect x="81" y="83" width="67" height="42" rx="2" fill="#FFF8C7"/></g></svg>