<svg width="162" height="120" fill="none" xmlns="http://www.w3.org/2000/svg"><path fill="#fff" d="M0 0h162v120H0z"/><mask id="a" maskUnits="userSpaceOnUse" x="0" y="0" width="162" height="40"><path d="M160 0H2a2 2 0 00-2 2v36a2 2 0 002 2h158a2 2 0 002-2V2a2 2 0 00-2-2z" fill="#fff"/></mask><g mask="url(#a)"><path fill-rule="evenodd" clip-rule="evenodd" d="M68.5 10.5h-61v4h61v-4zm44 8H7.5v4h105v-4zm-81 8h-24v4h24v-4z" fill="#EBEBEB"/><rect x="130.5" y="8.5" width="24" height="24" rx="2" fill="#FFF8C7"/></g><mask id="b" maskUnits="userSpaceOnUse" x="0" y="40" width="162" height="40"><path d="M160 40H2a2 2 0 00-2 2v36a2 2 0 002 2h158a2 2 0 002-2V42a2 2 0 00-2-2z" fill="#fff"/></mask><g mask="url(#b)"><path fill-rule="evenodd" clip-rule="evenodd" d="M68.5 50.5h-61v4h61v-4zm44 8H7.5v4h105v-4zm-81 8h-24v4h24v-4z" fill="#EBEBEB"/><rect x="130.5" y="48.5" width="24" height="24" rx="2" fill="#FECDD2"/></g><mask id="c" maskUnits="userSpaceOnUse" x="0" y="80" width="162" height="40"><path d="M160 80H2a2 2 0 00-2 2v36a2 2 0 002 2h158a2 2 0 002-2V82a2 2 0 00-2-2z" fill="#fff"/></mask><g mask="url(#c)"><path fill-rule="evenodd" clip-rule="evenodd" d="M68.5 90.5h-61v4h61v-4zm44 8H7.5v4h105v-4zm-81 8h-24v4h24v-4z" fill="#EBEBEB"/><rect x="130.5" y="88.5" width="24" height="24" rx="2" fill="#B4EBF1"/></g></svg>